<?xml version="1.0"?>
<svg xmlns="http://www.w3.org/2000/svg" viewBox="0 0 64 64" width="512" height="512"><g id="Layer_20" data-name="Layer 20"><path d="M57,33H56V30a1,1,0,0,0-1-1H54V26a1.07,1.07,0,0,0-.06-.31h0l-.62-1.84a6.55,6.55,0,0,1,.36-5l.2-.41a1,1,0,0,0,0-.82h0l-2-5A1,1,0,0,0,51,12H49a1,1,0,0,0-.93.63l-2,5h0a1,1,0,0,0,0,.82l.2.41A6.56,6.56,0,0,1,47,21.78a6.27,6.27,0,0,1-.34,2.06l-.61,1.84h0A1.07,1.07,0,0,0,46,26v3H45a1,1,0,0,0-1,1v3H43a1,1,0,0,0-1,1V52a1,1,0,0,0,1,1h1v3a1,1,0,0,0,1,1h2v6h2V57h2v6h2V57h2a1,1,0,0,0,1-1V53h1a1,1,0,0,0,1-1V34A1,1,0,0,0,57,33ZM48.53,19h2.94a8.48,8.48,0,0,0,0,5.48l.17.52H48.39l.17-.52a8.48,8.48,0,0,0,0-5.48Zm1.15-5h.64l1.2,3h-3ZM48,27h4v2H48Zm-2,4h8v2H46Zm-2,8h2v8H44ZM54,55H46V53h8Zm2-4H44V49h3a1,1,0,0,0,1-1V38a1,1,0,0,0-1-1H44V35H56Z"/><path d="M21,33H20V30a1,1,0,0,0-1-1H18V26a1.07,1.07,0,0,0-.06-.31h0l-.62-1.84a6.55,6.55,0,0,1,.36-5l.2-.41a1,1,0,0,0,0-.82h0l-2-5A1,1,0,0,0,15,12H13a1,1,0,0,0-.93.63l-2,5h0a1,1,0,0,0,0,.82l.2.41A6.56,6.56,0,0,1,11,21.78a6.27,6.27,0,0,1-.34,2.06l-.61,1.84h0A1.07,1.07,0,0,0,10,26v3H9a1,1,0,0,0-1,1v3H7a1,1,0,0,0-1,1V52a1,1,0,0,0,1,1H8v3a1,1,0,0,0,1,1h2v6h2V57h2v6h2V57h2a1,1,0,0,0,1-1V53h1a1,1,0,0,0,1-1V34A1,1,0,0,0,21,33ZM12.53,19h2.94a8.48,8.48,0,0,0,0,5.48l.17.52H12.39l.17-.52a8.58,8.58,0,0,0,.44-2.7A8.5,8.5,0,0,0,12.53,19Zm1.15-5h.64l1.2,3h-3ZM12,27h4v2H12Zm-2,4h8v2H10ZM8,39h2v8H8ZM18,55H10V53h8Zm2-4H8V49h3a1,1,0,0,0,1-1V38a1,1,0,0,0-1-1H8V35H20Z"/><path d="M39,22H38V19a1,1,0,0,0-1-1H36V15a1.07,1.07,0,0,0-.06-.31h0l-.62-1.84a6.55,6.55,0,0,1,.36-5l.2-.41a1,1,0,0,0,0-.82h0l-2-5A1,1,0,0,0,33,1H31a1,1,0,0,0-.93.63l-2,5h0a1,1,0,0,0,0,.82l.2.41A6.56,6.56,0,0,1,29,10.78a6.27,6.27,0,0,1-.34,2.06l-.61,1.84h0A1.07,1.07,0,0,0,28,15v3H27a1,1,0,0,0-1,1v3H25a1,1,0,0,0-1,1V41a1,1,0,0,0,1,1h1v3a1,1,0,0,0,1,1h2V63h2V46h2V63h2V46h2a1,1,0,0,0,1-1V42h1a1,1,0,0,0,1-1V23A1,1,0,0,0,39,22ZM30.53,8h2.94a8.48,8.48,0,0,0,0,5.48l.17.52H30.39l.17-.52a8.48,8.48,0,0,0,0-5.48Zm1.15-5h.64l1.2,3h-3ZM30,16h4v2H30Zm-2,4h8v2H28Zm-2,8h2v8H26ZM36,44H28V42h8Zm2-4H26V38h3a1,1,0,0,0,1-1V27a1,1,0,0,0-1-1H26V24H38Z"/></g></svg>
