<svg height="512pt" viewBox="0 0 512 512" width="512pt" xmlns="http://www.w3.org/2000/svg"><path d="m411.683594 360.152344 9.316406-8.570313v-186.582031c0-90.980469-74.019531-165-165-165s-165 74.019531-165 165v186.582031l9.316406 8.570313c-55.816406 2.9375-100.316406 48.839844-100.316406 104.847656v47h512v-47c0-56.007812-44.5-101.910156-100.316406-104.847656zm-20.683594-21.734375-60 55.1875v-54.546875c19.019531-24.941406 30-55.9375 30-88.925782v-19.878906c18.75 23.183594 30 52.675782 30 84.746094zm-135-158.417969c27.730469 0 53.535156 8.410156 75 22.804688v47.328124c0 29.601563-11.125 57.179688-30 78.105469v-58.238281h-90v58.238281c-18.875-20.925781-30-48.503906-30-78.105469v-47.328124c21.464844-14.394532 47.269531-22.804688 75-22.804688zm15 172.085938c-4.785156 2.648437-9.785156 5-15 6.988281-5.214844-1.988281-10.214844-4.339844-15-6.988281v-52.085938h30zm-60 16.378906c21.640625 15.820312 42.988281 21.519531 45 22.347656 2.785156-1.148438 22.746094-6.078125 45-22.347656v113.535156h-90zm-90-203.464844c0-74.4375 60.5625-135 135-135s135 60.5625 135 135v55.242188c-29.886719-42.449219-79.253906-70.242188-135-70.242188s-105.113281 27.792969-135 70.242188zm30 65.25v19.882812c0 32.988282 10.980469 63.984376 30 88.925782v54.546875l-60-55.191407v-23.414062c0-32.074219 11.25-61.5625 30-84.75zm-121 234.75c0-41.355469 34.09375-75 76-75h26.765625l48.234375 44.363281v47.636719h-151zm452 17h-151v-47.632812l48.234375-44.367188h26.765625c41.90625 0 76 33.644531 76 75zm0 0"/></svg>